<svg width="63" height="62" viewBox="0 0 63 62" fill="none" xmlns="http://www.w3.org/2000/svg">
<path d="M14.78 17.7788L44.4354 47.547C44.5964 47.7086 44.7956 47.8267 45.0144 47.8901C45.2332 47.9536 45.4645 47.9604 45.6866 47.9098C45.9087 47.8593 46.1144 47.7531 46.2845 47.6012C46.4547 47.4492 46.5837 47.2565 46.6596 47.0409L61.8957 3.7052C62.0398 3.29766 62.0845 2.86139 62.0261 2.43294C61.9677 2.00449 61.8078 1.59633 61.5599 1.24266C61.312 0.888992 60.9833 0.600113 60.6012 0.400219C60.2192 0.200329 59.795 0.0952452 59.3642 0.0937765C59.0552 0.0942456 58.7484 0.147312 58.457 0.250732L15.2841 15.5408C15.0694 15.6169 14.8774 15.7464 14.726 15.9172C14.5746 16.088 14.4688 16.2945 14.4185 16.5175C14.3682 16.7404 14.3749 16.9725 14.4381 17.1921C14.5013 17.4118 14.6189 17.6117 14.78 17.7734L14.78 17.7788Z" fill="#F55A7F"/>
<path d="M31.8431 34.9051L24.3483 12.3354L28.7818 10.7644L39.2771 42.3674L31.8431 34.9051ZM48.0457 43.1049L36.4086 8.05959L40.8435 6.48865L50.5947 35.8509L48.0457 43.1049ZM52.8984 2.21827L57.522 16.139L54.9743 23.3875L48.4663 3.78921L52.8984 2.21827Z" fill="#F55A7F"/>
<path d="M39.9937 50.6492C40.165 50.6486 40.3348 50.6812 40.4938 50.7453C40.6583 50.8112 40.8082 50.9089 40.9351 51.033C41.0619 51.1571 41.1631 51.305 41.233 51.4684C41.3029 51.6317 41.34 51.8073 41.3422 51.9851C41.3444 52.1628 41.3117 52.3393 41.246 52.5043L38.55 59.2698C38.4174 59.6032 38.1583 59.8701 37.8296 60.0117C37.501 60.1532 37.1298 60.158 36.7977 60.0249C36.4655 59.8917 36.1997 59.6316 36.0587 59.3017C35.9176 58.9718 35.9129 58.5992 36.0455 58.2658L38.7414 51.5003C38.8415 51.249 39.0142 51.0336 39.2375 50.8819C39.4607 50.7302 39.7241 50.6491 39.9937 50.6492Z" fill="#F55A7F"/>
<path d="M10.3437 20.8809C10.6572 20.8806 10.961 20.99 11.2029 21.1904C11.4447 21.3907 11.6094 21.6694 11.6686 21.9784C11.7278 22.2875 11.6779 22.6076 11.5273 22.8837C11.3768 23.1598 11.135 23.3745 10.8437 23.491L4.10388 26.1972C3.77176 26.3304 3.40055 26.3256 3.07192 26.184C2.74329 26.0424 2.48415 25.7756 2.35151 25.4422C2.21888 25.1088 2.22361 24.7362 2.36467 24.4063C2.50573 24.0764 2.77156 23.8163 3.10369 23.6832L9.84356 20.977C10.0025 20.9129 10.1723 20.8803 10.3437 20.8809Z" fill="#F55A7F"/>
<path d="M15.7328 28.9995C16.0903 28.9995 16.4332 29.1421 16.686 29.3958C16.9388 29.6496 17.0808 29.9937 17.0808 30.3526C17.0808 30.7115 16.9388 31.0556 16.686 31.3094C16.4332 31.5631 16.0903 31.7057 15.7328 31.7057C14.3028 31.7057 12.9314 32.2759 11.9202 33.291C10.909 34.306 10.3409 35.6826 10.3409 37.1181C10.3388 39.2706 9.486 41.3344 7.9697 42.8564C6.45339 44.3785 4.39746 45.2345 2.25309 45.2367C1.89558 45.2367 1.55272 45.0941 1.29993 44.8404C1.04713 44.5866 0.905115 44.2425 0.905115 43.8836C0.905115 43.5247 1.04713 43.1806 1.29993 42.9268C1.55272 42.6731 1.89558 42.5305 2.25309 42.5305C3.68311 42.5305 5.05456 41.9603 6.06574 40.9452C7.07691 39.9302 7.64499 38.5536 7.64499 37.1181C7.64713 34.9656 8.49993 32.9018 10.0162 31.3798C11.5325 29.8577 13.5885 29.0016 15.7328 28.9995Z" fill="#F55A7F"/>
<path d="M31.9072 45.2372C32.2647 45.2372 32.6075 45.3797 32.8603 45.6335C33.1131 45.8872 33.2551 46.2314 33.2551 46.5903C33.253 48.7428 32.4002 50.8065 30.8839 52.3286C29.3676 53.8507 27.3117 54.7067 25.1673 54.7089C23.7373 54.7089 22.3658 55.2791 21.3546 56.2941C20.3435 57.3091 19.7754 58.6858 19.7754 60.1213C19.7754 60.4801 19.6334 60.8243 19.3806 61.078C19.1278 61.3318 18.7849 61.4744 18.4274 61.4744C18.0699 61.4744 17.727 61.3318 17.4742 61.078C17.2214 60.8243 17.0794 60.4801 17.0794 60.1213C17.0816 57.9687 17.9344 55.905 19.4507 54.3829C20.967 52.8609 23.0229 52.0048 25.1673 52.0027C26.5973 52.0027 27.9687 51.4324 28.9799 50.4174C29.9911 49.4024 30.5592 48.0257 30.5592 46.5903C30.5592 46.2314 30.7012 45.8872 30.954 45.6335C31.2068 45.3797 31.5496 45.2372 31.9072 45.2372Z" fill="#F55A7F"/>
<path d="M7.64382 50.6498C5.41042 50.6498 3.5999 52.4672 3.5999 54.7091C3.5999 56.951 5.41042 58.7684 7.64382 58.7684C9.87722 58.7684 11.6877 56.951 11.6877 54.7091C11.6877 52.4672 9.87722 50.6498 7.64382 50.6498Z" fill="#F55A7F"/>
<path d="M23.8203 37.1185C24.0868 37.1185 24.3474 37.1979 24.569 37.3466C24.7906 37.4953 24.9634 37.7066 25.0654 37.9538C25.1674 38.201 25.1941 38.473 25.1421 38.7355C25.0901 38.9979 24.9618 39.239 24.7733 39.4282L16.6855 47.5468C16.4312 47.7933 16.0907 47.9297 15.7373 47.9266C15.3838 47.9235 15.0458 47.7812 14.7958 47.5303C14.5459 47.2794 14.4041 46.9401 14.4011 46.5853C14.398 46.2305 14.5339 45.8887 14.7794 45.6335L22.8673 37.5149C23.12 37.2611 23.4628 37.1185 23.8203 37.1185Z" fill="#F55A7F"/>
</svg>
