<svg width="40" height="40" viewBox="0 0 18 17" fill="none" xmlns="http://www.w3.org/2000/svg">
<path d="M7.11592 1.00036C7.29005 1.04713 7.45021 1.13551 7.58262 1.2579L10.1574 3.63557L13.5761 2.86386C13.7785 2.81838 13.9896 2.83039 14.1856 2.89853C14.3815 2.96667 14.5545 3.08823 14.685 3.24948C14.8156 3.41073 14.8984 3.60526 14.9242 3.8111C14.95 4.01695 14.9178 4.22591 14.8311 4.4144L13.3665 7.5933L15.1578 10.6078C15.262 10.7861 15.3146 10.9899 15.3096 11.1964C15.3047 11.4028 15.2423 11.6039 15.1296 11.7769C15.0169 11.95 14.8582 12.0883 14.6713 12.1763C14.4845 12.2643 14.2768 12.2985 14.0716 12.2752L10.5915 11.8658L8.2807 14.5092C8.13717 14.6507 7.95915 14.7522 7.7643 14.8036C7.56945 14.8551 7.36453 14.8547 7.16987 14.8025C6.97521 14.7504 6.79756 14.6482 6.65454 14.5062C6.51152 14.3643 6.4081 14.1874 6.35452 13.9931L5.66841 10.5559L2.44985 9.17041C2.26047 9.08799 2.09776 8.95448 1.97994 8.78484C1.86213 8.61519 1.79385 8.41611 1.78275 8.20986C1.77165 8.00362 1.81817 7.79836 1.9171 7.61705C2.01603 7.43574 2.16347 7.28554 2.34292 7.18327L5.40147 5.4683L5.72247 1.98295C5.73609 1.82101 5.785 1.66402 5.86579 1.523C5.94657 1.38199 6.05726 1.26038 6.19007 1.16673C6.32289 1.07307 6.4746 1.00965 6.63455 0.980905C6.7945 0.952164 6.95881 0.958803 7.11592 1.00036Z" fill="url(#paint0_linear)"/>
<defs>
<linearGradient id="paint0_linear" x1="12.6604" y1="-3.82621" x2="11.7177" y2="11.8856" gradientUnits="userSpaceOnUse">
<stop stop-color="#FFD764"/>
<stop offset="1" stop-color="#FFD764" stop-opacity="0"/>
</linearGradient>
</defs>
</svg>
