<svg width="40" height="40" viewBox="0 0 22 22" fill="none" xmlns="http://www.w3.org/2000/svg">
<path d="M13.4646 20.8945C13.2418 20.8347 13.037 20.7216 12.8677 20.5651L9.57448 17.524L5.20198 18.5111C4.9431 18.5692 4.67312 18.5539 4.4225 18.4667C4.17189 18.3796 3.95063 18.2241 3.7837 18.0179C3.61677 17.8116 3.51081 17.5628 3.47779 17.2995C3.44477 17.0363 3.486 16.769 3.59683 16.5279L5.47014 12.4621L3.17908 8.60663C3.04573 8.37859 2.97847 8.11794 2.98483 7.85385C2.9912 7.58976 3.07093 7.33266 3.21512 7.11131C3.35931 6.88996 3.56225 6.71311 3.80124 6.60055C4.04023 6.48799 4.30582 6.44416 4.5683 6.47398L9.0193 6.99766L11.9748 3.61674C12.1584 3.4358 12.3861 3.306 12.6353 3.24019C12.8845 3.17439 13.1466 3.17486 13.3956 3.24158C13.6445 3.30829 13.8717 3.43892 14.0547 3.62052C14.2376 3.80211 14.3699 4.02837 14.4384 4.27685L15.3159 8.67305L19.4324 10.445C19.6747 10.5504 19.8828 10.7212 20.0334 10.9382C20.1841 11.1551 20.2715 11.4098 20.2857 11.6736C20.2999 11.9373 20.2404 12.1999 20.1138 12.4318C19.9873 12.6637 19.7987 12.8558 19.5692 12.9866L15.6573 15.18L15.2468 19.6377C15.2294 19.8449 15.1668 20.0457 15.0635 20.226C14.9602 20.4064 14.8186 20.5619 14.6487 20.6817C14.4788 20.8015 14.2848 20.8826 14.0802 20.9194C13.8757 20.9561 13.6655 20.9476 13.4646 20.8945Z" fill="url(#paint0_linear)"/>
<defs>
<linearGradient id="paint0_linear" x1="5.89124" y1="7.97183" x2="15.24" y2="16.6758" gradientUnits="userSpaceOnUse">
<stop stop-color="#FFD764"/>
<stop offset="1" stop-color="#FFD764" stop-opacity="0"/>
</linearGradient>
</defs>
</svg>
