<svg width="48" height="46" viewBox="0 0 48 46" fill="none" xmlns="http://www.w3.org/2000/svg">
<path d="M29.2175 43.5184C28.7321 43.3881 28.2856 43.1417 27.9165 42.8005L20.7388 36.1724L11.2087 38.3237C10.6444 38.4504 10.056 38.417 9.50976 38.227C8.96354 38.0371 8.48129 37.6982 8.11745 37.2487C7.75361 36.7992 7.52268 36.2569 7.45071 35.6831C7.37874 35.1093 7.4686 34.5268 7.71016 34.0013L11.7932 25.1397L6.79965 16.7363C6.509 16.2393 6.3624 15.6712 6.37627 15.0956C6.39014 14.52 6.56393 13.9596 6.8782 13.4772C7.19246 12.9948 7.63479 12.6093 8.15568 12.364C8.67656 12.1186 9.25545 12.0231 9.82754 12.0881L19.5288 13.2295L25.9705 5.86056C26.3706 5.46621 26.8669 5.18329 27.41 5.03986C27.9532 4.89643 28.5244 4.89747 29.0671 5.04287C29.6097 5.18828 30.105 5.47299 30.5037 5.86879C30.9023 6.2646 31.1907 6.75773 31.34 7.29931L33.2526 16.8811L42.2248 20.7432C42.7528 20.973 43.2063 21.3452 43.5348 21.8181C43.8632 22.291 44.0536 22.846 44.0845 23.4209C44.1154 23.9958 43.9857 24.568 43.71 25.0735C43.4342 25.5789 43.0232 25.9976 42.5229 26.2827L33.9968 31.0634L33.1019 40.7793C33.064 41.2308 32.9276 41.6684 32.7024 42.0615C32.4772 42.4546 32.1687 42.7936 31.7984 43.0547C31.4282 43.3158 31.0053 43.4926 30.5594 43.5727C30.1135 43.6528 29.6555 43.6343 29.2175 43.5184Z" fill="url(#paint0_linear)"/>
<defs>
<linearGradient id="paint0_linear" x1="12.711" y1="15.3527" x2="33.0871" y2="34.3236" gradientUnits="userSpaceOnUse">
<stop stop-color="#FFD764"/>
<stop offset="1" stop-color="#FFD764" stop-opacity="0"/>
</linearGradient>
</defs>
</svg>
