<svg width="60" height="60" viewBox="0 0 28 27" fill="none" xmlns="http://www.w3.org/2000/svg">
<path d="M17.24 25.1584C16.9593 25.083 16.7011 24.9405 16.4876 24.7431L12.3361 20.9095L6.82399 22.1538C6.49763 22.2271 6.15728 22.2077 5.84135 22.0979C5.52542 21.988 5.2465 21.792 5.03606 21.532C4.82562 21.272 4.69205 20.9584 4.65042 20.6265C4.6088 20.2946 4.66077 19.9577 4.80049 19.6538L7.16204 14.5283L4.27386 9.66794C4.10575 9.38047 4.02096 9.05189 4.02898 8.71897C4.037 8.38605 4.13752 8.06193 4.31929 7.78289C4.50105 7.50385 4.75689 7.28091 5.05817 7.13901C5.35944 6.99712 5.69426 6.94187 6.02515 6.97945L11.6362 7.63963L15.362 3.37753C15.5934 3.14944 15.8805 2.9858 16.1946 2.90285C16.5088 2.81989 16.8392 2.82049 17.1531 2.90459C17.4669 2.98869 17.7534 3.15336 17.9839 3.38229C18.2145 3.61122 18.3813 3.89644 18.4677 4.20968L19.5739 9.75167L24.7633 11.9855C25.0687 12.1184 25.331 12.3336 25.521 12.6071C25.7109 12.8807 25.821 13.2017 25.8389 13.5342C25.8568 13.8667 25.7818 14.1977 25.6223 14.49C25.4628 14.7823 25.2251 15.0245 24.9357 15.1894L20.0043 17.9545L19.4868 23.5741C19.4648 23.8352 19.3859 24.0883 19.2557 24.3157C19.1254 24.5431 18.947 24.7391 18.7328 24.8901C18.5187 25.0411 18.2741 25.1434 18.0162 25.1897C17.7583 25.2361 17.4934 25.2254 17.24 25.1584Z" fill="url(#paint0_linear)"/>
<defs>
<linearGradient id="paint0_linear" x1="7.69289" y1="8.86769" x2="19.4782" y2="19.8402" gradientUnits="userSpaceOnUse">
<stop stop-color="#FFD764"/>
<stop offset="1" stop-color="#FFD764" stop-opacity="0"/>
</linearGradient>
</defs>
</svg>
