<svg width="40" height="40" viewBox="0 0 20 20" fill="none" xmlns="http://www.w3.org/2000/svg">
<path d="M3.0282 6.79049C3.16967 6.67871 3.33619 6.60299 3.51342 6.56983L6.95806 5.92367L8.37992 2.72034C8.46427 2.53081 8.59993 2.36863 8.77157 2.25212C8.94322 2.1356 9.14401 2.06939 9.3513 2.06095C9.55858 2.05251 9.76409 2.10218 9.94464 2.20436C10.1252 2.30653 10.2736 2.45714 10.3731 2.63919L12.0489 5.71201L15.5367 6.07461C15.7419 6.0974 15.9368 6.17688 16.0995 6.30414C16.2622 6.4314 16.3862 6.60143 16.4578 6.79519C16.5293 6.98895 16.5455 7.19879 16.5045 7.40123C16.4636 7.60368 16.3671 7.79073 16.2259 7.94145L13.8198 10.4889L14.5609 13.9208C14.5887 14.1204 14.5639 14.3238 14.4888 14.5109C14.4138 14.6979 14.2911 14.8621 14.1331 14.9871C13.975 15.1121 13.787 15.1937 13.5877 15.2236C13.3885 15.2536 13.1848 15.231 12.9969 15.158L9.82985 13.6564L6.79691 15.4113C6.61773 15.514 6.41349 15.5649 6.20705 15.5581C6.00062 15.5514 5.80014 15.4873 5.62806 15.373C5.45597 15.2588 5.31908 15.099 5.23269 14.9114C5.1463 14.7237 5.11382 14.5158 5.1389 14.3108L5.58903 10.8332L2.98459 8.49497C2.8628 8.38737 2.76605 8.25441 2.70115 8.10541C2.63625 7.95642 2.60477 7.79502 2.60893 7.63256C2.61309 7.4701 2.65278 7.31052 2.72521 7.16504C2.79765 7.01957 2.90106 6.89172 3.0282 6.79049Z" fill="url(#paint0_linear)"/>
<defs>
<linearGradient id="paint0_linear" x1="2.46617" y1="-0.538994" x2="14.508" y2="9.5972" gradientUnits="userSpaceOnUse">
<stop stop-color="#FFD764"/>
<stop offset="1" stop-color="#FFD764" stop-opacity="0"/>
</linearGradient>
</defs>
</svg>
